<mxfile host="65bd71144e">
    <diagram id="R4epZ6XAxab_LoJ8n9xy" name="ページ1">
        <mxGraphModel dx="1887" dy="1549" grid="1" gridSize="10" guides="1" tooltips="1" connect="1" arrows="1" fold="1" page="1" pageScale="1" pageWidth="827" pageHeight="1169" math="0" shadow="0">
            <root>
                <mxCell id="0"/>
                <mxCell id="1" parent="0"/>
                <mxCell id="64" value="" style="shape=callout;whiteSpace=wrap;html=1;perimeter=calloutPerimeter;position2=0.5;" vertex="1" parent="1">
                    <mxGeometry x="190" y="-175" width="510" height="285" as="geometry"/>
                </mxCell>
                <mxCell id="4" value="" style="rounded=1;whiteSpace=wrap;html=1;" vertex="1" parent="1">
                    <mxGeometry x="210" y="-150" width="310" height="200" as="geometry"/>
                </mxCell>
                <mxCell id="35" value="" style="rounded=1;whiteSpace=wrap;html=1;" vertex="1" parent="1">
                    <mxGeometry x="370" y="-80" width="130" height="100" as="geometry"/>
                </mxCell>
                <mxCell id="5" value="集約" style="text;html=1;strokeColor=none;fillColor=none;align=center;verticalAlign=middle;whiteSpace=wrap;rounded=0;" vertex="1" parent="1">
                    <mxGeometry x="212" y="-150" width="60" height="30" as="geometry"/>
                </mxCell>
                <mxCell id="7" value="" style="rounded=1;whiteSpace=wrap;html=1;" vertex="1" parent="1">
                    <mxGeometry x="222" y="-80" width="130" height="100" as="geometry"/>
                </mxCell>
                <mxCell id="8" value="エンティティ" style="text;html=1;strokeColor=none;fillColor=none;align=center;verticalAlign=middle;whiteSpace=wrap;rounded=0;" vertex="1" parent="1">
                    <mxGeometry x="222" y="-80" width="70" height="30" as="geometry"/>
                </mxCell>
                <mxCell id="12" value="VO" style="rounded=1;whiteSpace=wrap;html=1;" vertex="1" parent="1">
                    <mxGeometry x="232" y="-40" width="40" height="50" as="geometry"/>
                </mxCell>
                <mxCell id="13" value="VO" style="rounded=1;whiteSpace=wrap;html=1;" vertex="1" parent="1">
                    <mxGeometry x="292" y="-40" width="40" height="50" as="geometry"/>
                </mxCell>
                <mxCell id="51" style="edgeStyle=none;html=1;exitX=1;exitY=0.5;exitDx=0;exitDy=0;entryX=0;entryY=0.5;entryDx=0;entryDy=0;entryPerimeter=0;" edge="1" parent="1" source="26" target="29">
                    <mxGeometry relative="1" as="geometry"/>
                </mxCell>
                <mxCell id="26" value="Rdbリポジトリ" style="rounded=1;whiteSpace=wrap;html=1;" vertex="1" parent="1">
                    <mxGeometry x="750" y="70" width="120" height="60" as="geometry"/>
                </mxCell>
                <mxCell id="52" style="edgeStyle=none;html=1;exitX=1;exitY=0.5;exitDx=0;exitDy=0;" edge="1" parent="1" source="27" target="30">
                    <mxGeometry relative="1" as="geometry"/>
                </mxCell>
                <mxCell id="27" value="スプシリポジトリ" style="rounded=1;whiteSpace=wrap;html=1;" vertex="1" parent="1">
                    <mxGeometry x="750" y="160" width="120" height="60" as="geometry"/>
                </mxCell>
                <mxCell id="53" style="edgeStyle=none;html=1;exitX=1;exitY=0.5;exitDx=0;exitDy=0;entryX=0.005;entryY=0.63;entryDx=0;entryDy=0;entryPerimeter=0;" edge="1" parent="1" source="28" target="31">
                    <mxGeometry relative="1" as="geometry"/>
                </mxCell>
                <mxCell id="28" value="外部APIリポジトリ" style="rounded=1;whiteSpace=wrap;html=1;" vertex="1" parent="1">
                    <mxGeometry x="750" y="250" width="120" height="60" as="geometry"/>
                </mxCell>
                <mxCell id="29" value="" style="shape=cylinder3;whiteSpace=wrap;html=1;boundedLbl=1;backgroundOutline=1;size=15;" vertex="1" parent="1">
                    <mxGeometry x="930" y="60" width="60" height="80" as="geometry"/>
                </mxCell>
                <mxCell id="30" value="" style="sketch=0;pointerEvents=1;shadow=0;dashed=0;html=1;strokeColor=none;fillColor=#505050;labelPosition=center;verticalLabelPosition=bottom;verticalAlign=top;outlineConnect=0;align=center;shape=mxgraph.office.users.csv_file;" vertex="1" parent="1">
                    <mxGeometry x="930" y="160" width="76" height="60" as="geometry"/>
                </mxCell>
                <mxCell id="31" value="" style="sketch=0;html=1;dashed=0;whitespace=wrap;fillColor=#2875E2;strokeColor=#ffffff;points=[[0.005,0.63,0],[0.1,0.2,0],[0.9,0.2,0],[0.5,0,0],[0.995,0.63,0],[0.72,0.99,0],[0.5,1,0],[0.28,0.99,0]];shape=mxgraph.kubernetes.icon;prIcon=api" vertex="1" parent="1">
                    <mxGeometry x="931" y="250" width="50" height="48" as="geometry"/>
                </mxCell>
                <mxCell id="32" value="VO" style="rounded=1;whiteSpace=wrap;html=1;" vertex="1" parent="1">
                    <mxGeometry x="440" y="-40" width="40" height="50" as="geometry"/>
                </mxCell>
                <mxCell id="33" value="VO" style="rounded=1;whiteSpace=wrap;html=1;" vertex="1" parent="1">
                    <mxGeometry x="380" y="-40" width="40" height="50" as="geometry"/>
                </mxCell>
                <mxCell id="34" value="エンティティ" style="text;html=1;strokeColor=none;fillColor=none;align=center;verticalAlign=middle;whiteSpace=wrap;rounded=0;" vertex="1" parent="1">
                    <mxGeometry x="370" y="-80" width="70" height="30" as="geometry"/>
                </mxCell>
                <mxCell id="37" value="サービス" style="rounded=1;whiteSpace=wrap;html=1;" vertex="1" parent="1">
                    <mxGeometry x="560" y="-10" width="120" height="60" as="geometry"/>
                </mxCell>
                <mxCell id="48" style="edgeStyle=none;html=1;exitX=1;exitY=0.5;exitDx=0;exitDy=0;entryX=0;entryY=0.5;entryDx=0;entryDy=0;" edge="1" parent="1" source="41" target="26">
                    <mxGeometry relative="1" as="geometry"/>
                </mxCell>
                <mxCell id="49" style="edgeStyle=none;html=1;exitX=1;exitY=0.5;exitDx=0;exitDy=0;entryX=0;entryY=0.5;entryDx=0;entryDy=0;" edge="1" parent="1" source="41" target="27">
                    <mxGeometry relative="1" as="geometry"/>
                </mxCell>
                <mxCell id="50" style="edgeStyle=none;html=1;exitX=1;exitY=0.5;exitDx=0;exitDy=0;entryX=0;entryY=0.5;entryDx=0;entryDy=0;" edge="1" parent="1" source="41" target="28">
                    <mxGeometry relative="1" as="geometry"/>
                </mxCell>
                <mxCell id="41" value="ユースケース" style="rounded=1;whiteSpace=wrap;html=1;" vertex="1" parent="1">
                    <mxGeometry x="381" y="160" width="120" height="60" as="geometry"/>
                </mxCell>
                <mxCell id="46" style="edgeStyle=none;html=1;exitX=1;exitY=0.5;exitDx=0;exitDy=0;entryX=0;entryY=0.5;entryDx=0;entryDy=0;" edge="1" parent="1" source="44" target="41">
                    <mxGeometry relative="1" as="geometry"/>
                </mxCell>
                <mxCell id="44" value="コントローラー" style="rounded=1;whiteSpace=wrap;html=1;" vertex="1" parent="1">
                    <mxGeometry x="120" y="100" width="120" height="60" as="geometry"/>
                </mxCell>
                <mxCell id="47" style="edgeStyle=none;html=1;exitX=1;exitY=0.5;exitDx=0;exitDy=0;entryX=-0.017;entryY=0.617;entryDx=0;entryDy=0;entryPerimeter=0;" edge="1" parent="1" source="45" target="41">
                    <mxGeometry relative="1" as="geometry">
                        <mxPoint x="450" y="190" as="targetPoint"/>
                    </mxGeometry>
                </mxCell>
                <mxCell id="45" value="CLI" style="rounded=1;whiteSpace=wrap;html=1;" vertex="1" parent="1">
                    <mxGeometry x="120" y="230" width="120" height="60" as="geometry"/>
                </mxCell>
                <mxCell id="55" style="edgeStyle=none;html=1;exitX=1;exitY=0.5;exitDx=0;exitDy=0;entryX=0;entryY=0.5;entryDx=0;entryDy=0;" edge="1" parent="1" source="54" target="44">
                    <mxGeometry relative="1" as="geometry"/>
                </mxCell>
                <mxCell id="54" value="" style="aspect=fixed;perimeter=ellipsePerimeter;html=1;align=center;shadow=0;dashed=0;spacingTop=3;image;image=img/lib/active_directory/internet_globe.svg;" vertex="1" parent="1">
                    <mxGeometry x="-30" y="105" width="50" height="50" as="geometry"/>
                </mxCell>
                <mxCell id="57" style="edgeStyle=none;html=1;exitX=1;exitY=0.5;exitDx=0;exitDy=0;entryX=0;entryY=0.5;entryDx=0;entryDy=0;" edge="1" parent="1" source="56" target="45">
                    <mxGeometry relative="1" as="geometry"/>
                </mxCell>
                <mxCell id="56" value="" style="editableCssRules=.*;shape=image;verticalLabelPosition=bottom;labelBackgroundColor=#ffffff;verticalAlign=top;aspect=fixed;imageAspect=0;image=data:image/svg+xml,PHN2ZyB4bWxucz0iaHR0cDovL3d3dy53My5vcmcvMjAwMC9zdmciIHhtbG5zOnY9Imh0dHBzOi8vdmVjdGEuaW8vbmFubyIgd2lkdGg9IjM3NS44NTAyODQ2NDQwODg3MyIgaGVpZ2h0PSIzNTMuODA1Nzc3NDY3NzY5NyIgdmlld0JveD0iMC4yNTU5OTk1NjUxMjQ1MTE3IDAuNDI2MDAwMDI4ODQ4NjQ4MDcgOTkuNDQzNjU2OTIxMzg2NzIgOTMuNjExMDAwMDYxMDM1MTYiPiYjeGE7PHN0eWxlIHR5cGU9InRleHQvY3NzIj4mI3hhOwkuc3Qwe2ZpbGw6I2FlY2JmYTt9JiN4YTsJLnN0MXtmaWxsOiNmZmY7fSYjeGE7CS5zdDJ7ZmlsbDojNDI4NWY0O30mI3hhOwkuc3Qze2ZpbGw6IzY2OWRmNjt9JiN4YTs8L3N0eWxlPiYjeGE7CTxwYXRoIGNsYXNzPSJzdDAiIGQ9Ik04LjU0NCA3MS45MjhjLTQuODE1IDAtOC4yODgtMy44ODktOC4yODgtOC4zMjdWNy45ODNDLjI1NyA0LjY1IDQuMDcyLjQyNiA3LjQ5NS40MjZoODMuOTUyYzQuNzA1IDAgOC4yNTIgMy4zNzkgOC4yNTIgOC4xNzR2NTEuNDk1Yy4wNDcgNy41OTUtMi40NyAxMS44MzQtOS4wMTIgMTEuODM0eiIvPiYjeGE7CTxwYXRoIGNsYXNzPSJzdDEiIGQ9Ik0yOC4wNDYgNTcuMTV2LTkuOTIybDMxLjg4Mi0xMy44OTEtMzEuODgyLTEzLjY5MlY5LjI2MWw0NS44MDYgMTguOTg0djkuNzl6bTI1LjIzNSAzLjY3MXYtMTAuNTVoMjAuMDc1djEwLjU1eiIvPiYjeGE7CTxwYXRoIGNsYXNzPSJzdDIiIGQ9Ik00MC4wMyA4My41MjRWNzEuOTI4aDIwLjI5NXYxMS41OTZ6Ii8+JiN4YTsJPHBhdGggY2xhc3M9InN0MyIgZD0iTTY5Ljg3MyA4My41MjR2MTAuNTEzSDMwLjFWODMuNTI0eiIvPiYjeGE7PC9zdmc+;" vertex="1" parent="1">
                    <mxGeometry x="-30" y="235.38" width="51.84" height="49.25" as="geometry"/>
                </mxCell>
                <mxCell id="67" value="インターネット" style="text;html=1;strokeColor=none;fillColor=none;align=center;verticalAlign=middle;whiteSpace=wrap;rounded=0;" vertex="1" parent="1">
                    <mxGeometry x="-50" y="73" width="90" height="30" as="geometry"/>
                </mxCell>
                <mxCell id="68" value="ターミナル&lt;br&gt;cron" style="text;html=1;strokeColor=none;fillColor=none;align=center;verticalAlign=middle;whiteSpace=wrap;rounded=0;" vertex="1" parent="1">
                    <mxGeometry x="-34.08" y="200" width="60" height="30" as="geometry"/>
                </mxCell>
            </root>
        </mxGraphModel>
    </diagram>
</mxfile>